HIERARCHY
ROOT Hips
{
	OFFSET 0.00000 0.00000 0.00000
	CHANNELS 6 Xposition Yposition Zposition Zrotation Yrotation Xrotation 
	JOINT LHipJoint
	{
		OFFSET 0 0 0
		CHANNELS 3 Zrotation Yrotation Xrotation
		JOINT LeftUpLeg
		{
			OFFSET 1.26600 -1.82114 0.91038
			CHANNELS 3 Zrotation Yrotation Xrotation
			JOINT LeftLeg
			{
				OFFSET 2.50076 -6.87080 0.00000
				CHANNELS 3 Zrotation Yrotation Xrotation
				JOINT LeftFoot
				{
					OFFSET 2.57364 -7.07102 0.00000
					CHANNELS 3 Zrotation Yrotation Xrotation
					JOINT LeftToeBase
					{
						OFFSET 0.13572 -0.37290 1.97004
						CHANNELS 3 Zrotation Yrotation Xrotation
						End Site
						{
							OFFSET 0.00000 -0.00000 1.01383
						}
					}
				}
			}
		}
	}
	JOINT RHipJoint
	{
		OFFSET 0 0 0
		CHANNELS 3 Zrotation Yrotation Xrotation
		JOINT RightUpLeg
		{
			OFFSET -1.20803 -1.82114 0.91038
			CHANNELS 3 Zrotation Yrotation Xrotation
			JOINT RightLeg
			{
				OFFSET -2.54916 -7.00377 0.00000
				CHANNELS 3 Zrotation Yrotation Xrotation
				JOINT RightFoot
				{
					OFFSET -2.56374 -7.04382 0.00000
					CHANNELS 3 Zrotation Yrotation Xrotation
					JOINT RightToeBase
					{
						OFFSET -0.23520 -0.64621 2.09921
						CHANNELS 3 Zrotation Yrotation Xrotation
						End Site
						{
							OFFSET -0.00000 -0.00000 1.10065
						}
					}
				}
			}
		}
	}
	JOINT LowerBack
	{
		OFFSET 0 0 0
		CHANNELS 3 Zrotation Yrotation Xrotation
		JOINT Spine
		{
			OFFSET 0.05492 2.10797 -0.12074
			CHANNELS 3 Zrotation Yrotation Xrotation
			JOINT Spine1
			{
				OFFSET 0.04577 2.11592 -0.04483
				CHANNELS 3 Zrotation Yrotation Xrotation
				JOINT Neck
				{
					OFFSET 0 0 0
					CHANNELS 3 Zrotation Yrotation Xrotation
					JOINT Neck1
					{
						OFFSET -0.10759 1.80167 0.15770
						CHANNELS 3 Zrotation Yrotation Xrotation
						JOINT Head
						{
							OFFSET 0.09237 1.77509 -0.40848
							CHANNELS 3 Zrotation Yrotation Xrotation
							End Site
							{
								OFFSET 0.03805 1.84093 -0.15754
							}
						}
					}
				}
				JOINT LeftShoulder
				{
					OFFSET 0 0 0
					CHANNELS 3 Zrotation Yrotation Xrotation
					JOINT LeftArm
					{
						OFFSET 3.42372 1.09575 -0.28209
						CHANNELS 3 Zrotation Yrotation Xrotation
						JOINT LeftForeArm
						{
							OFFSET 4.95681 -0.00000 0.00000
							CHANNELS 3 Zrotation Yrotation Xrotation
							JOINT LeftHand
							{
								OFFSET 3.40915 -0.00000 0.00000
								CHANNELS 3 Zrotation Yrotation Xrotation
								JOINT LeftFingerBase
								{
									OFFSET 0 0 0
									CHANNELS 3 Zrotation Yrotation Xrotation
									JOINT LeftHandIndex1
									{
										OFFSET 0.61640 -0.00000 0.00000
										CHANNELS 3 Zrotation Yrotation Xrotation
										End Site
										{
											OFFSET 0.49696 -0.00000 0.00000
										}
									}
								}
								JOINT LThumb
								{
									OFFSET 0 0 0
									CHANNELS 3 Zrotation Yrotation Xrotation
									End Site
									{
										OFFSET 0.50455 -0.00000 0.50455
									}
								}
							}
						}
					}
				}
				JOINT RightShoulder
				{
					OFFSET 0 0 0
					CHANNELS 3 Zrotation Yrotation Xrotation
					JOINT RightArm
					{
						OFFSET -3.24731 1.15872 -0.32221
						CHANNELS 3 Zrotation Yrotation Xrotation
						JOINT RightForeArm
						{
							OFFSET -5.35200 -0.00000 0.00000
							CHANNELS 3 Zrotation Yrotation Xrotation
							JOINT RightHand
							{
								OFFSET -3.43721 -0.00000 -0.00000
								CHANNELS 3 Zrotation Yrotation Xrotation
								JOINT RightFingerBase
								{
									OFFSET 0 0 0
									CHANNELS 3 Zrotation Yrotation Xrotation
									JOINT RightHandIndex1
									{
										OFFSET -0.72009 -0.00000 0.00000
										CHANNELS 3 Zrotation Yrotation Xrotation
										End Site
										{
											OFFSET -0.58056 -0.00000 0.00000
										}
									}
								}
								JOINT RThumb
								{
									OFFSET 0 0 0
									CHANNELS 3 Zrotation Yrotation Xrotation
									End Site
									{
										OFFSET -0.58942 -0.00000 0.58942
									}
								}
							}
						}
					}
				}
			}
		}
	}
}
MOTION
Frames: 10
Frame Time: .0083333
8.5822 17.7376 22.6203 0 0 0 0 0 0 -21 0 0 0 0 0 0 0 0 0 0 0 0 0 0 21 0 0 0 0 0 0 0 0 0 0 0 0 0 0 0 0 0 0 0 0 0 0 -16 0 0 21 0 0 11 0 0 0 -8 0 0 0 0 0 0 0 0 0 0 0 0 0 0 0 0 0 0 0 0 8 0 0 0 0 0 0 0 0 0 0 0 0 0 0 0 0 0
8.5822 17.7376 22.6203 -177.2180 -2.2996 -178.2060 0.0000 0.0000 0.0000 -19.6351 -1.7141 -8.0761 2.2801 9.4266 27.1392 0.5779 -10.7839 -14.5011 0.6071 4.9874 13.8725 0.0000 0.0000 0.0000 18.6592 -3.0436 -18.4106 -6.9356 -15.2774 48.6304 -0.7609 1.3999 -16.0651 -0.2015 2.8901 -7.9729 0.1031 2.2394 5.5560 1.9903 2.8877 2.0072 1.8000 1.3821 -1.1445 -9.8457 0.0347 -12.5962 2.6696 -0.6817 31.4201 2.4453 -1.9880 12.5309 -0.0000 -0.0000 0.0000 -90.3865 2.0307 12.6504 13.9305 -22.6353 -2.8013 -0.0000 0.0000 -0.9699 17.8418 19.1132 6.0163 -7.1250 0.0000 -0.0000 -10.2881 49.7041 -1.2045 -0.0000 -0.0000 0.0000 86.4307 0.9431 12.5373 -17.0302 26.8975 -4.1010 0.0000 -0.0000 -7.5199 -19.2662 15.9735 -5.4943 7.1250 -0.0000 -0.0000 5.6510 -13.1713 4.2358
8.5529 17.7409 22.6299 -177.4450 -1.9472 -178.2120 0.0000 0.0000 0.0000 -19.9768 -1.2329 -8.0350 2.2132 9.2967 26.7279 0.6268 -10.9442 -15.0214 0.4631 4.3651 12.1060 0.0000 0.0000 0.0000 17.9223 -2.7738 -19.8244 -7.5328 -15.7646 50.8616 -0.5938 1.6662 -14.0800 -0.2053 2.9174 -8.0490 -0.2462 2.2520 5.7857 1.9103 2.8628 2.3364 1.9136 1.3586 -0.9463 -9.6099 -0.0819 -13.6613 2.4726 -0.6571 31.6411 2.3389 -1.9529 12.8485 -0.0000 0.0000 0.0000 -90.3242 1.3431 12.0742 13.7685 -22.4028 -2.7393 -0.0000 0.0000 -0.5280 17.5955 18.7714 5.8269 -7.1250 0.0000 -0.0000 -10.4126 49.3190 -1.1199 -0.0000 0.0000 0.0000 86.5502 1.7643 12.2297 -17.2340 27.1653 -4.1936 0.0000 -0.0000 -7.3081 -19.0104 15.6157 -5.2985 7.1250 -0.0000 -0.0000 5.8082 -13.5723 4.3056
8.5173 17.7394 22.6419 -177.4960 -1.5142 -178.2940 0.0000 0.0000 0.0000 -20.1721 -0.7525 -7.8787 2.1421 9.1560 26.2844 0.6322 -10.8815 -15.0557 0.4623 4.3612 12.0951 0.0000 0.0000 0.0000 17.3062 -2.4274 -21.2278 -8.1701 -16.2429 53.1729 -0.4214 2.0954 -11.7161 -0.1235 2.2656 -6.2402 -0.2822 2.2510 6.0601 1.8453 2.8386 2.5646 1.8635 1.3371 -0.8618 -9.4952 -0.1129 -14.1357 2.3569 -0.5955 31.6308 2.2861 -1.9092 12.9419 0.0000 0.0000 0.0000 -90.2529 0.9940 11.3857 13.6728 -22.2651 -2.7029 -0.0000 -0.0000 0.4836 16.8525 18.5174 5.4952 -7.1250 0.0000 -0.0000 -11.0380 48.9498 -1.0873 0.0000 0.0000 0.0000 86.6186 2.1419 12.2691 -17.5403 27.5645 -4.3344 0.0000 -0.0000 -7.3231 -19.0018 15.6546 -5.3088 7.1250 -0.0000 -0.0000 5.8155 -13.5327 4.3160
8.4890 17.7464 22.6504 -177.5400 -0.9445 -178.2830 0.0000 0.0000 0.0000 -20.3493 -0.1810 -7.7611 2.0508 8.9712 25.7052 0.6050 -10.7581 -14.7582 0.5036 4.5490 12.6267 0.0000 0.0000 0.0000 16.7182 -1.8872 -22.7874 -8.8401 -16.7037 55.5356 -0.2701 2.3459 -9.2838 -0.0350 1.2080 -3.3212 -0.3427 2.3443 6.1665 1.7734 2.9541 2.6235 1.8126 1.3926 -0.8636 -9.4122 -0.0695 -13.9704 2.2991 -0.5580 31.5108 2.2535 -1.8872 12.8528 0.0000 -0.0000 0.0000 -90.0453 1.1741 12.4879 13.6913 -22.2917 -2.7099 -0.0000 0.0000 -1.4655 18.0180 18.2495 5.8161 -7.1250 0.0000 -0.0000 -9.8448 48.8516 -0.9435 0.0000 -0.0000 0.0000 86.6255 2.0118 12.4493 -17.9790 28.1302 -4.5393 0.0000 -0.0000 -7.7032 -19.4052 15.9770 -5.5380 7.1250 -0.0000 -0.0000 5.5580 -13.1524 4.1676
8.4682 17.7609 22.6556 -177.8570 -0.5016 -178.2950 0.0000 0.0000 0.0000 -20.7733 0.5085 -7.6462 1.9560 8.7737 25.0901 0.5767 -10.3530 -14.3633 0.4746 4.4183 12.2565 0.0000 0.0000 0.0000 15.8667 -1.4530 -24.4206 -9.5755 -17.1641 58.0600 -0.1693 2.5021 -7.3099 -0.0046 0.4386 -1.2052 -0.8198 2.4023 6.3897 1.6835 3.0059 2.6054 1.9738 1.4185 -1.0277 -9.3895 0.0168 -13.7624 2.2806 -0.4934 31.5338 2.2495 -1.8725 12.8122 -0.0000 0.0000 0.0000 -89.8137 1.3959 12.9234 13.6526 -22.2359 -2.6953 -0.0000 0.0000 -1.6272 18.4192 19.0433 6.2015 -7.1250 0.0000 -0.0000 -9.7102 49.7230 -1.1402 -0.0000 0.0000 0.0000 86.6005 1.7603 12.5322 -18.4011 28.6677 -4.7401 0.0000 -0.0000 -7.7912 -19.7960 16.2486 -5.7511 7.1250 -0.0000 -0.0000 5.3088 -12.8243 4.0157
8.4495 17.7802 22.6632 -178.3620 -0.2522 -178.3740 0.0000 0.0000 0.0000 -21.3791 1.1810 -7.4459 1.8565 8.5606 24.4301 0.6200 -10.7015 -14.8868 0.2122 2.9656 8.1830 0.0000 0.0000 0.0000 14.8238 -1.2367 -26.0602 -10.3871 -17.6219 60.7745 -0.1208 2.5606 -6.1782 -0.0013 -0.2361 0.6486 -1.5117 2.3310 6.7390 1.5768 2.8630 2.6285 2.2496 1.3451 -1.2202 -9.4376 0.1456 -13.6435 2.2530 -0.3225 31.5297 2.2699 -1.8165 12.7725 -0.0000 -0.0000 0.0000 -89.7428 1.4796 12.3914 13.5780 -22.1282 -2.6671 -0.0000 0.0000 -0.6290 19.6319 19.7634 6.8776 -7.1250 0.0000 -0.0000 -8.7655 50.6551 -1.2297 -0.0000 -0.0000 0.0000 86.5378 1.6478 12.8274 -18.7467 29.1027 -4.9070 0.0000 -0.0000 -7.8442 -20.0212 16.3564 -5.8590 7.1250 -0.0000 -0.0000 5.1635 -12.6853 3.9199
8.4291 17.7862 22.6720 -178.7540 0.0659 -178.4620 0.0000 0.0000 0.0000 -21.8859 1.7276 -7.1878 1.7547 8.3353 23.7371 0.3797 -11.0017 -12.5287 0.9806 6.3033 17.6671 0.0000 0.0000 0.0000 13.8983 -1.1020 -27.7874 -11.2878 -18.0731 63.7127 -0.1074 2.4053 -5.8252 -0.0141 -0.7673 2.1088 -2.1140 2.0110 6.9310 1.5059 2.7527 2.7545 2.5163 1.4407 -1.2103 -9.4212 0.2922 -13.5913 2.1298 -0.0748 31.4063 2.2537 -1.7171 12.6931 0.0000 0.0000 0.0000 -89.8100 1.4759 11.7174 13.5694 -22.1157 -2.6638 -0.0000 -0.0000 0.1769 19.5476 19.3897 6.7227 -7.1250 0.0000 -0.0000 -8.7285 50.2570 -1.1386 0.0000 0.0000 0.0000 86.4109 1.7263 13.4445 -19.0871 29.5267 -5.0737 0.0000 -0.0000 -8.2380 -20.2497 16.1235 -5.8496 7.1250 -0.0000 -0.0000 4.9991 -12.9029 3.7713
8.4086 17.7854 22.6774 -179.1250 0.3825 -178.6090 0.0000 0.0000 0.0000 -22.3789 2.1382 -6.7948 1.6518 8.0996 23.0170 0.5668 -10.6771 -14.3593 0.2382 3.1411 8.6719 0.0000 0.0000 0.0000 13.0115 -1.0776 -29.4549 -12.2549 -18.4963 66.7946 -0.1151 2.3565 -6.0256 -0.0378 -1.2552 3.4511 -2.7404 1.8575 7.0162 1.5104 2.5114 2.8414 2.8922 1.3181 -1.1778 -9.4015 0.5634 -13.2294 1.9182 0.3149 31.2242 2.2191 -1.5755 12.5153 -0.0000 -0.0000 0.0000 -89.9012 1.7055 11.5921 13.6164 -22.1837 -2.6816 -0.0000 0.0000 -0.2635 18.4048 18.7933 6.1186 -7.1250 0.0000 -0.0000 -9.6445 49.4654 -1.0708 -0.0000 -0.0000 0.0000 86.1917 1.6160 14.2170 -19.4932 30.0270 -5.2754 0.0000 -0.0000 -8.4507 -20.6572 15.8964 -5.8957 7.1250 -0.0000 -0.0000 4.7146 -13.0941 3.5362
8.3896 17.7858 22.6813 -179.7040 0.5303 -178.8480 0.0000 0.0000 0.0000 -23.1150 2.3376 -6.2230 1.5552 7.8706 22.3217 0.3398 -10.6636 -11.9513 0.9594 6.2368 17.4730 0.0000 0.0000 0.0000 11.8755 -1.2115 -31.0997 -13.2979 -18.8871 70.0481 -0.1352 2.6213 -6.5342 -0.1050 -2.0898 5.7539 -2.9659 1.9866 7.2391 1.0003 2.7090 3.4099 2.4808 1.4243 -0.7124 -9.0528 0.2680 -14.3941 2.0227 0.0205 31.3117 2.1712 -1.6025 12.8181 -0.0000 0.0000 0.0000 -88.9796 0.6413 13.1899 13.4867 -21.9962 -2.6328 -0.0000 0.0000 -1.4831 17.9978 19.1203 6.0742 -7.1250 0.0000 -0.0000 -10.1405 49.7356 -1.1949 -0.0000 0.0000 0.0000 86.7804 2.4166 13.4956 -19.8532 30.4651 -5.4567 0.0000 -0.0000 -8.3272 -21.0775 16.7168 -6.3261 7.1250 -0.0000 -0.0000 4.4792 -12.1793 3.4442
